<?xml version="1.0" encoding="utf-8"?>
<!-- Generator: Adobe Illustrator 18.0.0, SVG Export Plug-In . SVG Version: 6.00 Build 0)  -->
<!DOCTYPE svg PUBLIC "-//W3C//DTD SVG 1.1//EN" "http://www.w3.org/Graphics/SVG/1.1/DTD/svg11.dtd">
<svg version="1.1" id="Layer_1" xmlns="http://www.w3.org/2000/svg" xmlns:xlink="http://www.w3.org/1999/xlink" x="0px" y="0px"
	 viewBox="0 0 600 52" enable-background="new 0 0 600 52" xml:space="preserve">
<g>
	<path d="M34,17.9c-2-2-4.8-3.1-8.1-3.1c-6.5,0-11.3,4.7-11.3,11.3c0,6.5,4.7,11.3,11.3,11.3c3.3,0,6.1-1.2,8.1-3.2l9,8.8
		C38.7,47.2,32.6,50,26,50C12.7,50,2,39.2,2,26S12.7,2,26,2c6.6,0,12.5,2.6,16.9,7L34,17.9z"/>
	<path d="M71.5,2c13.2,0,24,10.8,24,24.1S84.8,50,71.5,50S47.6,39.3,47.6,26.1S58.3,2,71.5,2z M71.5,14.5c-6.3,0-11.4,5.1-11.4,11.5
		c0,6.3,5.1,11.5,11.4,11.5C77.9,37.5,83,32.3,83,26C83,19.7,77.9,14.5,71.5,14.5z"/>
	<path d="M139.4,50l-22.7-22.7V50h-12.6V2h5.1l22.7,22.7V2h12.6v48H139.4z"/>
	<path d="M177,2c13.2,0,24,10.8,24,24.1S190.3,50,177,50s-23.9-10.7-23.9-23.9S163.8,2,177,2z M177,14.5c-6.3,0-11.4,5.1-11.4,11.5
		c0,6.3,5.1,11.5,11.4,11.5c6.3,0,11.5-5.2,11.5-11.5C188.5,19.7,183.4,14.5,177,14.5z"/>
	<path d="M237.4,50L230,37.3h-7.8V50h-12.6V2h20.2c9.7,0,17.7,7.9,17.7,17.7c0,5.1-2.2,9.7-5.7,12.9L252,50H237.4z M222.2,26.4h7.8
		c3.8,0,6.9-3,6.9-6.8s-3.1-6.9-6.9-6.9h-7.8V26.4z"/>
	<path d="M304.6,16.7c0-2-1.7-3.6-3.6-3.6c-2,0-3.6,1.7-3.6,3.6c0,2,1.6,3.6,3.6,3.6c4.7,0,8.9,2.2,11.6,5.7c2,2.6,3.2,5.8,3.2,9.3
		c0,8.2-6.6,14.7-14.8,14.7s-14.8-6.5-14.8-14.9h11.2c0,2,1.6,3.6,3.6,3.6c2,0,3.6-1.6,3.6-3.6c0-2-1.7-3.6-3.6-3.6
		c-8.2,0-14.7-6.5-14.7-14.7S292.8,2,301,2s14.8,6.5,14.8,14.7H304.6z"/>
	<path d="M337.6,2v17.1h15.2V2h12.6v48h-12.6V31.7h-15.2V50H325V2H337.6z"/>
	<path d="M375.8,2h29.8v10.4h-17.2v7.8h15.2v10.6h-15.2v8.8h17.2V50h-29.8V2z"/>
	<path d="M415.1,2H445v10.4h-17.2v7.8H443v10.6h-15.2v8.8H445V50h-29.8V2z"/>
	<path d="M467.1,2v17.1h15.2V2h12.6v48h-12.6V31.7h-15.2V50h-12.6V2H467.1z"/>
	<path d="M500.9,50l22.4-48h5.7l22.6,48H539l-2.9-6.3h-19.6l-2.9,6.3H500.9z M521.3,33.1h9.8l-4.9-10.6L521.3,33.1z"/>
	<path d="M592.8,50l-22.7-22.7V50h-12.6V2h5.1l22.7,22.7V2H598v48H592.8z"/>
</g>
</svg>
