<?xml version="1.0" encoding="utf-8"?>
<!-- Generator: Adobe Illustrator 18.0.0, SVG Export Plug-In . SVG Version: 6.00 Build 0)  -->
<!DOCTYPE svg PUBLIC "-//W3C//DTD SVG 1.1//EN" "http://www.w3.org/Graphics/SVG/1.1/DTD/svg11.dtd">
<svg version="1.1" id="Layer_1" xmlns="http://www.w3.org/2000/svg" xmlns:xlink="http://www.w3.org/1999/xlink" x="0px" y="0px"
	 viewBox="0 0 593.6 37.5" enable-background="new 0 0 593.6 37.5" xml:space="preserve">
<g>
	<path d="M0,0h23.4v1H1v16.8h20.9v1H1v17.7h22.4v1H0V0z"/>
	<path d="M29.4,37.5l13.7-19.5L30.5,0h1.2l12,17.2L55.7,0H57L44.4,18.1L58,37.5h-1.3L43.7,19l-13,18.6H29.4z"/>
	<path d="M89,11.1c0,6.1-5,11.1-11.1,11.1H66.2v15.4h-1V0h12.7C84,0,89,5,89,11.1z M66.2,1v20.3h11.7C83.4,21.2,88,16.7,88,11.1
		C88,5.5,83.4,1,77.8,1H66.2z"/>
	<path d="M96.5,0h23.4v1H97.4v16.8h20.9v1H97.4v17.7h22.4v1H96.5V0z"/>
	<path d="M139.8,22.2h-10.7v15.4h-1V0h12.7c6.1,0,11.1,5,11.1,11.1c0,6.1-4.9,11-11,11.1l8.9,15.4h-1.2L139.8,22.2z M140.8,1h-11.7
		v20.3h11.7c5.5-0.1,10.1-4.5,10.1-10.1C150.9,5.6,146.4,1,140.8,1z"/>
	<path d="M161.1,37.5V0h0.9v37.5H161.1z"/>
	<path d="M174,0h23.4v1h-22.4v16.8h20.9v1h-20.9v17.7h22.4v1H174V0z"/>
	<path d="M206.7,1v36.5h-1V0h1.6l29,36.5V0h1v37.5h-1.6L206.7,1z"/>
	<path d="M276,32c-3.4,3.4-8.1,5.5-13.3,5.5c-10.4,0-18.8-8.4-18.8-18.8c0-10.4,8.4-18.8,18.8-18.8c5.2,0,9.8,2.1,13.2,5.4l-0.7,0.6
		C272,2.9,267.6,1,262.7,1c-9.9,0-17.8,8-17.8,17.8c0,9.9,8,17.8,17.8,17.8c4.9,0,9.4-2,12.6-5.3L276,32z"/>
	<path d="M284.8,0h23.4v1h-22.4v16.8h20.9v1h-20.9v17.7h22.4v1h-23.4V0z"/>
	<path d="M341.5,0h14.1c10.3,0.1,18.7,8.5,18.7,18.8c0,10.4-8.4,18.8-18.8,18.8h-14.1V0z M355.5,1h-13v35.5h13
		c9.9,0,17.8-7.9,17.8-17.8C373.3,8.9,365.3,1,355.5,1z"/>
	<path d="M382.3,0h23.4v1h-22.4v16.8h20.9v1h-20.9v17.7h22.4v1h-23.4V0z"/>
	<path d="M430.6,9.7c0-4.8-3.8-8.7-8.7-8.7c-4.8,0-8.7,3.9-8.7,8.7s3.9,8.7,8.7,8.7c5.3,0,9.6,4.3,9.6,9.6c0,5.3-4.3,9.6-9.6,9.6
		c-5.3,0-9.6-4.4-9.6-9.7h1c0,4.8,3.9,8.7,8.7,8.7c4.8,0,8.7-3.9,8.7-8.7c0-4.8-3.8-8.7-8.7-8.7c-5.3,0-9.6-4.3-9.6-9.6
		s4.3-9.6,9.6-9.6c5.3,0,9.6,4.4,9.6,9.7H430.6z"/>
	<path d="M441.3,37.5V0h1v37.5H441.3z"/>
	<path d="M471,17.4h18.9v1.4c0,10.4-8.5,18.8-18.9,18.8s-18.8-8.4-18.8-18.8C452.3,8.4,460.7,0,471,0c5.2,0,9.8,2.1,13.2,5.4
		l-0.7,0.6C480.3,2.9,475.9,1,471,1c-9.9,0-17.8,8-17.8,17.8c0,9.9,8,17.8,17.8,17.8s17.8-8.2,17.8-17.8v-0.4H471V17.4z"/>
	<path d="M498.6,1v36.5h-1V0h1.7l29,36.5V0h1v37.5h-1.5L498.6,1z"/>
	<path d="M538.1,0h23.4v1h-22.4v16.8h20.9v1h-20.9v17.7h22.4v1h-23.4V0z"/>
	<path d="M581.5,22.2h-10.7v15.4h-1V0h12.7c6.1,0,11.1,5,11.1,11.1c0,6.1-4.9,11-11,11.1l8.9,15.4h-1.2L581.5,22.2z M582.5,1h-11.7
		v20.3h11.7c5.5-0.1,10.1-4.5,10.1-10.1C592.5,5.6,588,1,582.5,1z"/>
</g>
</svg>
